inDegrees=no
num_controls=7
num_derivatives=13
num_iterations=88
num_multipliers=7
num_parameters=0
num_slacks=7
num_states=26
objective=5.298810
objective_accelerations=0.444672
objective_balance=0.011805
objective_effort=0.381814
objective_height=4.390597
objective_ligament=0.069923
solver_duration=756.988268
status=Solve_Succeeded
success=true
DataType=double
version=3
OpenSimVersion=4.4-2022-07-23-0e9fedc
endheader
time	/jointset/ground_pelvis/pelvis_tilt/value	/jointset/ground_pelvis/pelvis_tx/value	/jointset/ground_pelvis/pelvis_ty/value	/jointset/hip_r/hip_flexion_r/value	/jointset/hip_r/hip_adduction_r/value	/jointset/hip_r/hip_rotation_r/value	/jointset/back/lumbar_extension/value	/jointset/patellofemoral_r/patellar_flexion_r/value	/jointset/knee_r/knee_flexion_r/value	/jointset/knee_r/knee_adduction_r/value	/jointset/knee_r/knee_rotation_r/value	/jointset/ankle_r/ankle_angle_r/value	/jointset/subtalar_r/subtalar_angle_r/value	/jointset/ground_pelvis/pelvis_tilt/speed	/jointset/ground_pelvis/pelvis_tx/speed	/jointset/ground_pelvis/pelvis_ty/speed	/jointset/hip_r/hip_flexion_r/speed	/jointset/hip_r/hip_adduction_r/speed	/jointset/hip_r/hip_rotation_r/speed	/jointset/back/lumbar_extension/speed	/jointset/patellofemoral_r/patellar_flexion_r/speed	/jointset/knee_r/knee_flexion_r/speed	/jointset/knee_r/knee_adduction_r/speed	/jointset/knee_r/knee_rotation_r/speed	/jointset/ankle_r/ankle_angle_r/speed	/jointset/subtalar_r/subtalar_angle_r/speed	/forceset/tau_hip_flexion_r	/forceset/tau_hip_adduction_r	/forceset/tau_hip_rotation_r	/forceset/tau_knee_flexion_r	/forceset/tau_ankle_angle_r	/forceset/tau_subtalar_angle_r	/forceset/tau_lumbar_extension	lambda_cid13_p0	lambda_cid14_p0	lambda_cid14_p1	lambda_cid14_p2	lambda_cid14_p3	lambda_cid14_p4	lambda_cid14_p5	/jointset/ground_pelvis/pelvis_tilt/accel	/jointset/ground_pelvis/pelvis_tx/accel	/jointset/ground_pelvis/pelvis_ty/accel	/jointset/hip_r/hip_flexion_r/accel	/jointset/hip_r/hip_adduction_r/accel	/jointset/hip_r/hip_rotation_r/accel	/jointset/back/lumbar_extension/accel	/jointset/patellofemoral_r/patellar_flexion_r/accel	/jointset/knee_r/knee_flexion_r/accel	/jointset/knee_r/knee_adduction_r/accel	/jointset/knee_r/knee_rotation_r/accel	/jointset/ankle_r/ankle_angle_r/accel	/jointset/subtalar_r/subtalar_angle_r/accel	gamma_cid13_p0	gamma_cid14_p0	gamma_cid14_p1	gamma_cid14_p2	gamma_cid14_p3	gamma_cid14_p4	gamma_cid14_p5
0	-0.001390017291375243	0.1286484891502424	0.9341635755349439	0.1934208783645156	-0.2187009077658357	-0.2410313108738871	-0.2903791543005566	0.2311793314021315	0.2311793314021609	0.111961811071495	0.167007758475691	0.08934340440958972	0.07562109761902945	0	0	0	0	0	0	0	0	0	0	0	0	0	0.1098920200811392	-0.05798233654229587	8.860537685423319e-06	-0.2616124599053939	0.1571188838334263	-0.07647216607724275	-0.02554662935729666	-29.68283533860104	4.509341219260956	-28.6352525317837	0.6614469108655681	-11.49723123471418	-614.9012625810699	50.15304435889524	-1.175659920458106	-1.399877212767258	-0.7137078686510862	7.987116879288497	0.1121234923567397	1.678559312513427	-6.067902914498283	8.966013958084606	8.96601395808686	-2.627387603452935	0.4354712702333118	2.816503787799496	0.9635415232466271	2.52735895850254e-08	1.716941386860471e-08	-2.081132906646461e-07	1.572226324639926e-07	7.054037053333736e-09	1.416938634984801e-07	-1.975221231760133e-07
0.01	-0.001443679873799767	0.1285792603560485	0.9341290614718273	0.1938087580670637	-0.2186930103798565	-0.2409482433667222	-0.2906808359767041	0.2316176352566275	0.2316176352566707	0.1118282385347266	0.1670265845590678	0.08948126095641258	0.07567123664912183	-0.01065921868662742	-0.01378890025653989	-0.006867622106752477	0.07713750366782306	0.00162426920198574	0.01650564791217114	-0.05970455756910267	0.08711586311966678	0.08711586311965551	-0.02666299161933265	0.003701568683057405	0.02737871992993833	0.01002866366014964	0.1011243569495319	-0.06500076511449004	0.0007764969545198901	-0.2492770928539353	0.1375404091640845	-0.06443693993304322	-0.01839428693224989	-29.68792792465758	-1.20223787580631	-23.96016752844718	-0.595890222503909	-8.341814860540493	-617.093338534421	58.81192956544038	-1.000060558683268	-1.359866233264509	-0.6679824654696994	7.511301298947296	0.1942943686373328	1.620421707639926	-5.82696553039807	8.502631266597636	8.502631266594722	-2.678045557394666	0.327983496549148	2.669671781885895	1.022643270117532	4.033641137372011e-08	9.645148035341267e-09	-2.901321624362927e-07	2.305494143967408e-07	2.458334392404188e-08	3.637581247503289e-08	-2.883774536332417e-07
0.02	-0.001601736186255258	0.1283738485990568	0.9340269325708845	0.1949548596441043	-0.218667527154958	-0.2407033485450104	-0.2915606098989573	0.2329107494978821	0.2329107494978904	0.1114295779581081	0.1670805230951846	0.08988712783981848	0.07582168521235916	-0.02087874600997698	-0.02723659255956714	-0.01352296756522737	0.1516443748724123	0.003517167784819731	0.03236546290719255	-0.1156184492295249	0.1709620773469069	0.1709620773468865	-0.05301760788748271	0.007022490534370849	0.05360206731167184	0.0200619066290251	0.09235669381881928	-0.07201919368702356	0.001544133371619456	-0.236941725802269	0.1179619344946592	-0.05240171378929055	-0.01124194450628066	-29.70263983135236	-6.844941321379094	-19.2881324449685	-1.835482234848719	-5.173057544230442	-618.1913607771163	67.21845886583411	-1.087721647802839	-1.331635622064482	-0.671252538995588	7.460990386641788	0.1658493685264202	1.549392729083478	-5.309769732762408	8.312084179599163	8.312084179601845	-2.56571253321652	0.3593419038844645	2.585429278158773	0.964457384991904	5.539923316241483e-08	2.120882202077827e-09	-3.721510342079393e-07	3.038761963294889e-07	4.211265079475002e-08	-6.894223854841437e-08	-3.7923278409047e-07
0.03	-0.001860413717493246	0.1280355977354855	0.933858878430598	0.196834730514956	-0.2186227935160547	-0.240302932597197	-0.292984051864467	0.2350283814197639	0.2350283814198319	0.1107705293114177	0.1671665643325112	0.09055019613696239	0.07607147647704603	-0.03081300076497314	-0.04036244340999389	-0.02008959563992276	0.2240293826612731	0.005384631311182484	0.04764972316707568	-0.1688210733368737	0.2522349765495481	0.2522349765495559	-0.07859703490027828	0.01016670174357343	0.07889012277645933	0.02980961906765161	0.08893423428387079	-0.06777938066462796	0.001708186772537257	-0.2339022680444859	0.1143739935452474	-0.05333325414039137	-0.008369278392016415	-29.72623160787978	-8.056116001766444	-19.89172568919711	-1.754150871368178	-4.639782624348688	-618.4297878167654	65.20861575056823	-0.9397095541239305	-1.295380810784448	-0.6496424279210382	7.082195592814937	0.1904628523684941	1.507801957256485	-5.288178169849128	7.985482076556448	7.98548207655913	-2.524821155400676	0.2891609959176206	2.482278659172975	0.966897121856695	5.407498718847188e-08	-3.195750811401436e-09	-3.477029328457168e-07	2.928529126985677e-07	4.450524422031873e-08	-1.237950115988082e-07	-3.590638570913474e-07
0.04	-0.002217120229231647	0.1275676241645601	0.9336251031123242	0.1994294393871966	-0.2185607316403738	-0.2397517021902133	-0.2949320539550881	0.2379488601909365	0.2379488601909518	0.1098615337207693	0.1672834877350566	0.0914625019844572	0.07641613865583051	-0.04048454211110279	-0.05318113403039339	-0.02666720316270379	0.2946119751624146	0.006982815144608827	0.06252835473962735	-0.220530474249388	0.3315314471905916	0.3315314471906161	-0.1030069967166784	0.01319892361193909	0.103449577382617	0.03903608944862838	0.08551177474844657	-0.06353956764214519	0.001872240172721637	-0.23086281028679	0.1107860525958475	-0.05426479449137003	-0.00549661227820367	-29.75780140985901	-9.204786641283285	-20.50025789873911	-1.653889776502968	-4.094976448784712	-617.6679136178896	62.96301456561301	-1.035178966029979	-1.270203576058782	-0.673448428612732	7.100507329097945	0.1119934299391504	1.468266991617203	-5.011125093795824	7.916798467279534	7.916798467279909	-2.331819493937513	0.336944035717001	2.439709106433056	0.8602089734620602	5.241286352870134e-08	-8.466865622410923e-09	-3.210596361611463e-07	2.800904524580862e-07	4.658574046145158e-08	-1.776072634538813e-07	-3.366057701446712e-07
0.05	-0.002669572743433771	0.1269734303882082	0.9333253884737683	0.2027204080928319	-0.218483928096134	-0.2390543542284522	-0.2973878207313474	0.2416516292106507	0.2416516292106478	0.1087142666635317	0.1674303344612819	0.09261685948067458	0.07685065725194615	-0.04996423089972144	-0.06556284697811894	-0.03328220871254508	0.3631910587960125	0.008373868724595222	0.07684474246258502	-0.2702233081686907	0.4086005960733315	0.4086005960733461	-0.1263123843469036	0.01611308985365041	0.1273183503712486	0.04783984478982293	0.08098306466985286	-0.06175101385795781	0.0020823696703644	-0.2279330311659432	0.1069149137085173	-0.05257609945554822	-0.001532229438013676	-29.79639180682797	-10.32517344517046	-19.93219889018659	-1.779669577896317	-4.045831672597841	-617.6872739555117	63.13583371411003	-0.8980981291596799	-1.207929680179094	-0.6565351991271688	6.678005463431027	0.1520691862110314	1.398904175338076	-4.888426616711138	7.538698527643171	7.538698527641379	-2.309813949695105	0.2601061261907274	2.344929399723386	0.8862747145133726	4.814517243499854e-08	-1.665378028716015e-08	-2.755002564090603e-07	2.60776799010428e-07	4.976410596209857e-08	-2.427734391943613e-07	-3.063838467833108e-07
